<svg id="visual" viewBox="0 0 900 600" width="900" height="600" xmlns="http://www.w3.org/2000/svg" xmlns:xlink="http://www.w3.org/1999/xlink" version="1.1"><rect x="0" y="0" width="900" height="600" fill="#001220"></rect><defs><linearGradient id="grad1_0" x1="33.3%" y1="0%" x2="100%" y2="100%"><stop offset="20%" stop-color="#001220" stop-opacity="1"></stop><stop offset="80%" stop-color="#001220" stop-opacity="1"></stop></linearGradient></defs><defs><linearGradient id="grad2_0" x1="0%" y1="0%" x2="66.7%" y2="100%"><stop offset="20%" stop-color="#001220" stop-opacity="1"></stop><stop offset="80%" stop-color="#001220" stop-opacity="1"></stop></linearGradient></defs><g transform="translate(900, 0)"><path d="M0 189.3C-15 164.6 -30.1 140 -55.9 134.9C-81.7 129.8 -118.3 144.2 -133.8 133.8C-149.4 123.5 -143.9 88.4 -149.7 62C-155.4 35.6 -172.3 17.8 -189.3 0L0 0Z" fill="#FBAE3C"></path></g><g transform="translate(0, 600)"><path d="M0 -189.3C25.9 -187.8 51.8 -186.3 72.4 -174.9C93.1 -163.4 108.4 -142 123 -123C137.7 -104 151.7 -87.5 162.6 -67.4C173.5 -47.2 181.4 -23.6 189.3 0L0 0Z" fill="#FBAE3C"></path></g></svg>