<svg id="visual" viewBox="0 0 1280 129" width="1280" height="129" xmlns="http://www.w3.org/2000/svg" xmlns:xlink="http://www.w3.org/1999/xlink" version="1.1"><path d="M0 68L23.7 73.3C47.3 78.7 94.7 89.3 142 83.5C189.3 77.7 236.7 55.3 284.2 56.2C331.7 57 379.3 81 426.8 78.5C474.3 76 521.7 47 569 46.5C616.3 46 663.7 74 711 87.3C758.3 100.7 805.7 99.3 853.2 91.2C900.7 83 948.3 68 995.8 64.2C1043.3 60.3 1090.7 67.7 1138 77C1185.3 86.3 1232.7 97.7 1256.3 103.3L1280 109L1280 130L1256.3 130C1232.7 130 1185.3 130 1138 130C1090.7 130 1043.3 130 995.8 130C948.3 130 900.7 130 853.2 130C805.7 130 758.3 130 711 130C663.7 130 616.3 130 569 130C521.7 130 474.3 130 426.8 130C379.3 130 331.7 130 284.2 130C236.7 130 189.3 130 142 130C94.7 130 47.3 130 23.7 130L0 130Z" fill="#00c4ff" stroke-linecap="round" stroke-linejoin="miter"></path></svg>